<svg xmlns="http://www.w3.org/2000/svg" xmlns:xlink="http://www.w3.org/1999/xlink" version="1.1" width="256" height="256" viewBox="0 0 256 256" xml:space="preserve">

<defs>
</defs>
<g style="stroke: none; stroke-width: 0; stroke-dasharray: none; stroke-linecap: butt; stroke-linejoin: miter; stroke-miterlimit: 10; fill: none; fill-rule: nonzero; opacity: 1;" transform="translate(1.4065934065934016 1.4065934065934016) scale(2.81 2.81)" >
	<circle cx="45" cy="45" r="45" style="stroke: none; stroke-width: 1; stroke-dasharray: none; stroke-linecap: butt; stroke-linejoin: miter; stroke-miterlimit: 10; fill: rgb(211,57,57); fill-rule: nonzero; opacity: 1;" transform="  matrix(1 0 0 1 0 0) "/>
	<circle cx="45" cy="45" r="33" style="stroke: none; stroke-width: 1; stroke-dasharray: none; stroke-linecap: butt; stroke-linejoin: miter; stroke-miterlimit: 10; fill: rgb(240,240,240); fill-rule: nonzero; opacity: 1;" transform="  matrix(1 0 0 1 0 0) "/>
	<path d="M 45.032 81.999 c -11.489 0 -22.3 -5.269 -29.367 -14.446 c -0.337 -0.438 -0.255 -1.065 0.183 -1.402 c 0.436 -0.339 1.064 -0.257 1.402 0.182 c 7.258 9.427 18.695 14.493 30.593 13.556 c 16.934 -1.335 30.71 -15.111 32.045 -32.045 c 0.811 -10.281 -2.885 -20.337 -10.139 -27.592 c -7.255 -7.254 -17.313 -10.948 -27.592 -10.139 c -0.551 0.042 -1.032 -0.368 -1.076 -0.918 S 41.449 8.162 42 8.118 c 10.87 -0.86 21.494 3.05 29.163 10.719 c 7.669 7.668 11.575 18.298 10.719 29.162 C 80.47 65.903 65.904 80.47 48 81.882 C 47.008 81.96 46.017 81.999 45.032 81.999 z" style="stroke: none; stroke-width: 1; stroke-dasharray: none; stroke-linecap: butt; stroke-linejoin: miter; stroke-miterlimit: 10; fill: rgb(240,240,240); fill-rule: nonzero; opacity: 1;" transform=" matrix(1 0 0 1 0 0) " stroke-linecap="round" />
	<path d="M 46.233 40.676 c 0.006 -0.054 0.016 -0.106 0.016 -0.161 V 25.224 c 0 -0.829 -0.671 -1.5 -1.5 -1.5 s -1.5 0.671 -1.5 1.5 v 15.291 c 0 0.117 0.016 0.229 0.041 0.338 c -1.523 0.633 -2.641 2.075 -2.776 3.782 c -0.057 0.72 0.059 1.407 0.306 2.027 c -0.05 0.031 -0.102 0.058 -0.15 0.096 L 24.825 59.358 c -0.648 0.516 -0.756 1.459 -0.24 2.107 c 0.296 0.372 0.733 0.566 1.175 0.566 c 0.327 0 0.657 -0.106 0.933 -0.326 l 15.846 -12.601 c 0.081 -0.064 0.154 -0.135 0.218 -0.212 c 0.759 0.439 1.655 0.667 2.61 0.592 c 2.181 -0.172 3.948 -1.939 4.12 -4.12 C 49.66 43.15 48.228 41.244 46.233 40.676 z" style="stroke: none; stroke-width: 1; stroke-dasharray: none; stroke-linecap: butt; stroke-linejoin: miter; stroke-miterlimit: 10; fill: rgb(211,57,57); fill-rule: nonzero; opacity: 1;" transform=" matrix(1 0 0 1 0 0) " stroke-linecap="round" />
	<path d="M 16.458 67.942 c -0.299 0 -0.596 -0.134 -0.793 -0.39 c -0.52 -0.676 -1.023 -1.378 -1.494 -2.087 c -0.306 -0.46 -0.181 -1.08 0.279 -1.387 c 0.46 -0.306 1.081 -0.181 1.386 0.279 c 0.446 0.67 0.922 1.335 1.414 1.974 c 0.337 0.438 0.255 1.066 -0.183 1.402 C 16.886 67.875 16.671 67.942 16.458 67.942 z" style="stroke: none; stroke-width: 1; stroke-dasharray: none; stroke-linecap: butt; stroke-linejoin: miter; stroke-miterlimit: 10; fill: rgb(240,240,240); fill-rule: nonzero; opacity: 1;" transform=" matrix(1 0 0 1 0 0) " stroke-linecap="round" />
	<path d="M 12.616 61.742 c -0.371 0 -0.727 -0.207 -0.9 -0.563 c -0.72 -1.479 -1.346 -3.021 -1.861 -4.579 c -0.173 -0.524 0.112 -1.09 0.636 -1.263 c 0.526 -0.179 1.09 0.112 1.263 0.636 c 0.486 1.475 1.078 2.932 1.759 4.331 c 0.242 0.496 0.035 1.095 -0.461 1.337 C 12.912 61.71 12.763 61.742 12.616 61.742 z M 9.608 52.631 c -0.473 0 -0.893 -0.336 -0.982 -0.817 c -0.3 -1.611 -0.495 -3.263 -0.578 -4.906 c -0.028 -0.552 0.396 -1.021 0.948 -1.049 c 0.555 -0.028 1.021 0.396 1.049 0.948 c 0.079 1.556 0.263 3.117 0.547 4.643 c 0.101 0.543 -0.257 1.064 -0.8 1.166 C 9.73 52.625 9.669 52.631 9.608 52.631 z M 9.119 43.047 c -0.026 0 -0.053 -0.001 -0.081 -0.003 C 8.488 43 8.077 42.518 8.121 41.967 c 0.131 -1.64 0.376 -3.285 0.728 -4.89 c 0.118 -0.539 0.65 -0.882 1.191 -0.762 c 0.54 0.118 0.881 0.651 0.762 1.191 c -0.333 1.516 -0.563 3.071 -0.687 4.62 C 10.073 42.65 9.635 43.047 9.119 43.047 z M 11.172 33.675 c -0.115 0 -0.231 -0.02 -0.345 -0.062 c -0.519 -0.19 -0.784 -0.765 -0.594 -1.283 c 0.565 -1.54 1.242 -3.059 2.012 -4.515 c 0.258 -0.488 0.863 -0.674 1.352 -0.417 c 0.488 0.258 0.675 0.863 0.417 1.352 c -0.728 1.377 -1.368 2.813 -1.903 4.27 C 11.962 33.424 11.58 33.675 11.172 33.675 z M 15.656 25.19 c -0.201 0 -0.403 -0.06 -0.58 -0.186 c -0.45 -0.321 -0.554 -0.945 -0.234 -1.395 c 0.952 -1.335 2.004 -2.623 3.127 -3.825 c 0.378 -0.404 1.01 -0.424 1.414 -0.048 c 0.404 0.377 0.425 1.01 0.048 1.414 c -1.063 1.138 -2.06 2.356 -2.96 3.621 C 16.276 25.044 15.969 25.19 15.656 25.19 z M 22.207 18.177 c -0.289 0 -0.575 -0.125 -0.773 -0.365 c -0.351 -0.427 -0.289 -1.057 0.137 -1.408 c 1.271 -1.044 2.622 -2.013 4.015 -2.878 c 0.47 -0.292 1.085 -0.147 1.377 0.322 c 0.292 0.469 0.147 1.086 -0.322 1.377 c -1.319 0.819 -2.597 1.735 -3.8 2.724 C 22.655 18.103 22.43 18.177 22.207 18.177 z M 30.357 13.119 c -0.382 0 -0.746 -0.22 -0.913 -0.591 c -0.227 -0.504 -0.001 -1.096 0.502 -1.322 c 1.503 -0.675 3.062 -1.252 4.633 -1.715 c 0.529 -0.155 1.085 0.146 1.242 0.676 c 0.156 0.53 -0.146 1.085 -0.676 1.242 c -1.485 0.438 -2.958 0.984 -4.379 1.622 C 30.633 13.091 30.494 13.119 30.357 13.119 z" style="stroke: none; stroke-width: 1; stroke-dasharray: none; stroke-linecap: butt; stroke-linejoin: miter; stroke-miterlimit: 10; fill: rgb(240,240,240); fill-rule: nonzero; opacity: 1;" transform=" matrix(1 0 0 1 0 0) " stroke-linecap="round" />
	<path d="M 39.593 10.4 c -0.486 0 -0.913 -0.355 -0.987 -0.851 c -0.083 -0.546 0.293 -1.055 0.84 -1.138 C 40.288 8.284 41.147 8.186 42 8.118 c 0.552 -0.035 1.032 0.368 1.076 0.918 s -0.368 1.032 -0.918 1.076 c -0.805 0.063 -1.617 0.156 -2.414 0.276 C 39.693 10.396 39.643 10.4 39.593 10.4 z" style="stroke: none; stroke-width: 1; stroke-dasharray: none; stroke-linecap: butt; stroke-linejoin: miter; stroke-miterlimit: 10; fill: rgb(240,240,240); fill-rule: nonzero; opacity: 1;" transform=" matrix(1 0 0 1 0 0) " stroke-linecap="round" />
</g>
</svg>